<?xml version="1.0" standalone="no"?>
<!DOCTYPE svg PUBLIC "-//W3C//DTD SVG 20010904//EN"
 "http://www.w3.org/TR/2001/REC-SVG-20010904/DTD/svg10.dtd">
<svg version="1.0" xmlns="http://www.w3.org/2000/svg"
 width="630.000000pt" height="630.000000pt" viewBox="0 0 630.000000 630.000000"
 preserveAspectRatio="xMidYMid meet">
<metadata>
Created by potrace 1.14, written by Peter Selinger 2001-2017
</metadata>
<g transform="translate(0.000000,630.000000) scale(0.100000,-0.100000)"
fill="#000000" stroke="none">
<path d="M1053 3762 l-102 -36 -3 -331 c-2 -181 -2 -430 0 -552 l2 -223 110 0
110 0 0 244 c0 236 1 244 23 277 29 44 100 74 150 65 45 -8 95 -50 113 -93 11
-24 14 -91 14 -263 l0 -230 111 0 110 0 -3 263 c-3 260 -3 262 -30 319 -33 71
-102 146 -165 181 -86 46 -218 56 -305 22 -17 -7 -18 7 -18 194 0 111 -3 201
-7 200 -5 0 -54 -17 -110 -37z"/>
<path d="M3030 3761 l-105 -36 -3 -552 -2 -553 109 0 110 0 3 238 c3 273 8
289 88 330 73 38 141 19 194 -52 20 -26 21 -43 24 -272 l3 -244 110 0 110 0
-3 258 c-4 312 -11 338 -113 438 -109 107 -230 134 -392 88 l-23 -6 -2 199 -3
200 -105 -36z"/>
<path d="M1913 3423 l-103 -35 0 -389 0 -389 110 0 110 0 0 425 c0 234 -3 425
-7 424 -5 0 -54 -16 -110 -36z"/>
<path d="M458 3429 c-115 -27 -226 -118 -281 -228 -30 -62 -32 -71 -32 -181 0
-106 2 -120 28 -172 37 -75 112 -157 176 -191 28 -16 83 -35 122 -43 137 -29
273 12 376 112 30 30 54 56 52 58 -2 2 -43 30 -91 63 l-88 61 -35 -33 c-46
-44 -124 -63 -181 -45 -144 46 -195 218 -96 324 77 82 204 86 284 9 l26 -25
86 58 c47 33 85 64 86 70 0 19 -94 101 -146 127 -86 43 -197 57 -286 36z"/>
<path d="M2422 3424 c-115 -31 -214 -114 -266 -224 -29 -61 -31 -72 -31 -180
0 -110 2 -119 32 -181 103 -209 356 -293 565 -188 57 29 148 108 148 128 0 5
-39 37 -87 70 l-86 60 -22 -23 c-102 -110 -287 -66 -330 77 -23 78 -6 145 52
199 78 75 197 75 275 2 l26 -26 81 57 c44 31 83 60 86 65 9 15 -59 83 -119
119 -97 58 -216 75 -324 45z"/>
<path d="M4608 3248 c-2 -106 -2 -291 0 -410 l3 -218 109 0 110 0 0 238 c0
220 2 239 20 270 21 34 87 72 125 72 38 0 102 -37 123 -72 21 -34 22 -47 22
-272 l0 -236 115 0 115 0 0 198 c-1 246 -9 316 -50 398 -68 139 -229 222 -379
196 -31 -6 -64 -13 -73 -17 -14 -6 -18 -2 -18 19 l0 26 -110 0 -109 0 -3 -192z"/>
<path d="M5683 3420 c-232 -76 -348 -347 -242 -567 28 -59 107 -144 165 -178
95 -56 254 -70 347 -31 32 13 37 13 37 0 0 -8 -18 -34 -40 -58 -65 -71 -155
-84 -240 -34 l-35 20 -72 -78 c-82 -91 -82 -90 15 -142 208 -111 465 -27 565
185 l32 68 0 270 0 270 -30 60 c-40 81 -119 158 -201 197 -88 41 -208 48 -301
18z m210 -216 c71 -36 107 -94 107 -174 0 -163 -186 -248 -312 -142 -37 31
-67 94 -68 140 0 68 53 150 115 178 41 18 120 17 158 -2z"/>
<path d="M3762 3153 c3 -278 3 -278 30 -335 33 -70 106 -145 173 -178 44 -22
63 -25 160 -25 97 0 116 3 160 25 67 33 140 108 173 178 27 57 27 57 30 335
l3 277 -110 0 -111 0 0 -246 c0 -275 -4 -296 -66 -335 -42 -26 -112 -27 -153
-3 -16 9 -39 34 -50 54 -20 35 -21 53 -21 284 l0 246 -111 0 -110 0 3 -277z"/>
</g>
</svg>
